<?xml version="1.0" encoding="utf-8"?>
<!-- Generator: Adobe Illustrator 24.1.1, SVG Export Plug-In . SVG Version: 6.00 Build 0)  -->
<svg version="1.1" id="color_line" xmlns="http://www.w3.org/2000/svg" xmlns:xlink="http://www.w3.org/1999/xlink" x="0px" y="0px"
	 viewBox="0 0 512 512" style="enable-background:new 0 0 512 512;" xml:space="preserve">
<style type="text/css">
	.st0{fill:#EEEFEE;}
	.st1{fill:#E1E6E9;}
	.st2{fill:#27CCBC;}
	.st3{fill:#21B3A9;}
	.st4{fill:#FCD462;}
	.st5{fill:#F7BE56;}
	.st6{fill:#323C6B;}
	.st7{fill:#FE7058;}
	.st8{fill:#FFFFFF;}
</style>
<path class="st0" d="M396.2,180.1c2.9-26.8-2.6-53.8-15.8-77.2c-22.4-33.9-49.7-59-88-72.6s-86.7-11.7-125.6,0.4
	C44.4,71.6,44.9,212.5,58.4,243c6.7,18.7,15.4,36.6,25.9,53.4c17.2,28.8,24.6,62.3,21.2,95.6c-2.8,27.4-7,51.1-13.2,99.2h211.5
	c0.9-18.1,3.5-36,7.9-53.6c1.1-7.3,4.4-14.1,9.6-19.4c6.1-3.9,13.3-5.7,20.5-5.3c18.3-0.9,37.5,1.1,55.7,0.2h0.2
	c11.8-0.8,20.7-11.1,19.9-22.9c-0.2-3.1-1.1-6.2-2.6-8.9c-0.5-1-1-2-1.5-3c-4.5-10.9-2.7-11.8,7.9-22.2c2.8-2.7,3-4.8,2.1-6.5
	c-1.3-1.9-2.9-3.5-4.8-4.8c-3-1.3-4.5-4.8-3.1-7.9c0.7-1.5,1.9-2.7,3.5-3.3c2.2-1.7,4.8-3.3,5.6-5.9c0.5-2.9-0.1-5.9-1.6-8.4
	c-4.2-8.5-9.5-19.1-13.7-27.6c-0.5-1.2,42.9-1.8,50.2-5.4c4.9-2.6,7.6-8,6.7-13.4C461.9,245.7,418.6,194.2,396.2,180.1L396.2,180.1z
	"/>
<path class="st1" d="M340.8,413.1c-6.9-0.4-13.7,1.5-19.5,5.3c-5.2,5.3-8.5,12-9.6,19.3c-4.4,17.6-7.1,35.5-7.9,53.6h-25
	c0.9-18.1,3.5-36.1,8-53.6c1-7.3,4.4-14,9.5-19.3c6.1-3.9,13.3-5.8,20.5-5.3C324.6,412.6,332.7,412.8,340.8,413.1L340.8,413.1z"/>
<path class="st1" d="M466.3,273.2c0.9,5.5-1.8,10.9-6.7,13.4c-7.3,3.7-50.2,4.2-50.2,5.5c4.1,8.5,9.5,19,13.6,27.5
	c1.6,2.5,2.2,5.5,1.7,8.4c-1.3,2.5-3.3,4.6-5.7,6c-3.1,1.1-4.7,4.6-3.6,7.7c0.6,1.6,1.8,2.8,3.3,3.5c1.9,1.3,3.5,2.9,4.8,4.8
	c0.8,1.7,0.7,3.8-2.1,6.4c-10.5,10.4-12.4,11.3-7.9,22.2c0.4,1,1,1.9,1.5,3c5.7,10.4,2,23.4-8.4,29.1c-2.7,1.5-5.8,2.4-8.9,2.6h-0.2
	c-8.2,0.4-16.5,0.2-24.8,0c11.8-0.8,20.7-11.1,19.9-22.9c-0.2-3.1-1.1-6.1-2.6-8.9c-0.6-1-1-2-1.5-3c-4.5-10.9-2.7-11.8,7.9-22.2
	c2.8-2.6,3-4.8,2.1-6.4c-1.2-1.9-2.9-3.5-4.8-4.8c-3-1.3-4.4-4.9-3.1-7.9c0.7-1.5,1.9-2.6,3.4-3.2c2.2-1.7,4.8-3.3,5.6-6
	c0.5-2.9-0.1-5.9-1.7-8.4c-4.1-8.5-9.5-19-13.6-27.5c0-1.2,43-1.8,50.2-5.5c4.9-2.6,7.6-8,6.7-13.4c-4.4-27.5-47.7-79-70.2-93.1
	c2.9-26.8-2.6-53.8-15.8-77.2c-22.3-33.9-49.7-59-88-72.6c-15.2-5.2-31-8.3-47-9.1c24.4-1.8,48.9,1.3,72.1,9.1
	c38.3,13.6,65.6,38.7,88,72.6c13.1,23.5,18.7,50.5,15.8,77.2C418.6,194.1,461.9,245.7,466.3,273.2z"/>
<path class="st1" d="M372.4,413.2c-10.4,0.5-21,0.1-31.6-0.1c0.3-0.1,0.7-0.1,1-0.1C351.8,412.5,362.1,412.9,372.4,413.2z"/>
<path class="st2" d="M177,130.5h114.8c8.5,0,15.4,6.9,15.4,15.4v114.8c0,8.5-6.9,15.4-15.4,15.4H177c-8.5,0-15.4-6.9-15.4-15.4l0,0
	V145.9C161.6,137.4,168.5,130.5,177,130.5L177,130.5z"/>
<path class="st3" d="M307.2,145.9v114.8c0,8-6.1,14.7-14.1,15.4V162c0-8.5-6.9-15.4-15.4-15.4c0,0,0,0-0.1,0H162.9
	c-0.5,0-0.9,0-1.4,0.1v-0.8c0-8.5,6.9-15.4,15.5-15.4c0,0,0,0,0,0h114.7C300.3,130.5,307.2,137.4,307.2,145.9
	C307.2,145.9,307.2,145.9,307.2,145.9L307.2,145.9z"/>
<path class="st4" d="M186.6,155.5h95.7v95.7h-95.7L186.6,155.5z"/>
<path class="st5" d="M282.3,155.5v95.7h-16.1v-81.2h-79.7v-14.5H282.3z"/>
<g>
	<path class="st6" d="M161.6,164.4h-25.4c-1.9,0-3.5-1.5-3.5-3.5c0-1.9,1.5-3.5,3.5-3.5h25.4c1.9,0,3.5,1.5,3.5,3.5
		C165,162.8,163.5,164.4,161.6,164.4z"/>
	<path class="st6" d="M161.6,206.8h-18.4c-1.9,0-3.5-1.5-3.5-3.5s1.5-3.5,3.5-3.5h18.3c1.9,0,3.5,1.5,3.5,3.5
		S163.5,206.8,161.6,206.8L161.6,206.8z"/>
	<path class="st6" d="M161.6,249.2h-28.6c-1.1,0-2.1-0.5-2.8-1.4L120.1,234c-1.1-1.5-0.8-3.7,0.7-4.8c1.5-1.1,3.7-0.8,4.8,0.7l0,0
		l9,12.3h26.9c1.9,0,3.5,1.5,3.5,3.5C165.1,247.7,163.5,249.2,161.6,249.2L161.6,249.2z"/>
	<path class="st6" d="M329.5,164.4h-22.3c-1.9,0-3.5-1.5-3.5-3.5c0-1.9,1.5-3.5,3.5-3.5h22.2c1.9,0,3.5,1.5,3.5,3.5
		C332.9,162.8,331.3,164.4,329.5,164.4L329.5,164.4z"/>
	<path class="st6" d="M348.1,214.3c-0.6,0-1.3-0.2-1.8-0.5l-11.4-7h-27.7c-1.9,0-3.5-1.5-3.5-3.5c0-1.9,1.5-3.5,3.5-3.5h28.7
		c0.6,0,1.3,0.2,1.8,0.5l12.3,7.6c1.6,1,2.1,3.1,1.1,4.8C350.4,213.7,349.3,214.3,348.1,214.3L348.1,214.3z"/>
	<path class="st6" d="M323.8,249.2h-16.6c-1.9,0-3.5-1.5-3.5-3.5c0-1.9,1.5-3.5,3.5-3.5h16.5c1.9,0,3.5,1.5,3.5,3.5
		C327.2,247.6,325.6,249.2,323.8,249.2L323.8,249.2z"/>
	<path class="st6" d="M192,305.4c-1.9,0-3.5-1.5-3.5-3.5v-25.8c0-1.9,1.5-3.5,3.5-3.5c1.9,0,3.5,1.5,3.5,3.5v25.8
		C195.5,303.9,193.9,305.4,192,305.4C192,305.4,192,305.4,192,305.4L192,305.4z"/>
	<path class="st6" d="M234.4,299.3c-1.9,0-3.5-1.5-3.5-3.5v-19.7c0-1.9,1.5-3.5,3.5-3.5c1.9,0,3.5,1.5,3.5,3.5v19.7
		C237.9,297.7,236.3,299.3,234.4,299.3z"/>
	<path class="st6" d="M265.3,319c-1.9,0-3.5-1.6-3.5-3.5c0-1,0.4-1.9,1.1-2.5l10.4-9.7v-27.2c0-1.9,1.5-3.5,3.5-3.5s3.5,1.5,3.5,3.5
		v28.7c0,1-0.4,1.9-1.1,2.5L267.6,318C267,318.6,266.2,319,265.3,319L265.3,319z"/>
	<path class="st6" d="M192,134c-1.9,0-3.5-1.5-3.5-3.5v-27.2l-9.8-9.5c-1.4-1.3-1.4-3.5-0.1-4.9s3.5-1.4,4.9-0.1l10.9,10.5
		c0.7,0.7,1.1,1.5,1.1,2.5v28.7C195.5,132.4,193.9,134,192,134C192,134,192,134,192,134z"/>
	<path class="st6" d="M234.4,134c-1.9,0-3.5-1.5-3.5-3.5v-17.7c0-1.9,1.5-3.5,3.5-3.5c1.9,0,3.5,1.5,3.5,3.5v17.7
		C237.9,132.4,236.3,134,234.4,134z"/>
	<path class="st6" d="M276.8,134c-1.9,0-3.5-1.5-3.5-3.5v-23.2c0-1.9,1.5-3.5,3.5-3.5s3.5,1.5,3.5,3.5v23.2
		C280.3,132.4,278.7,134,276.8,134z"/>
</g>
<circle class="st7" cx="173.5" cy="83.9" r="10.6"/>
<path class="st6" d="M173.5,98c-7.8,0-14.1-6.3-14.1-14.1c0-7.8,6.3-14.1,14.1-14.1c7.8,0,14,6.3,14.1,14
	C187.6,91.7,181.3,98,173.5,98z M173.5,76.8c-3.9,0-7.1,3.2-7.1,7.1c0,3.9,3.2,7.1,7.1,7.1c3.9,0,7.1-3.2,7.1-7.1
	C180.6,80,177.4,76.8,173.5,76.8L173.5,76.8z"/>
<circle class="st7" cx="356.2" cy="217.8" r="10.6"/>
<path class="st6" d="M356.2,231.8c-7.8,0-14.1-6.3-14.1-14.1s6.3-14.1,14.1-14.1c7.8,0,14,6.3,14.1,14
	C370.2,225.5,363.9,231.8,356.2,231.8z M356.2,210.6c-3.9,0-7.1,3.2-7.1,7.1c0,3.9,3.2,7.1,7.1,7.1s7.1-3.2,7.1-7.1v0
	C363.3,213.8,360.1,210.6,356.2,210.6L356.2,210.6z"/>
<circle class="st7" cx="257.9" cy="323.1" r="10.6"/>
<path class="st6" d="M257.9,337.2c-7.8,0-14.1-6.3-14.1-14.1c0-7.8,6.3-14.1,14.1-14.1c7.8,0,14.1,6.3,14.1,14.1l0,0
	C272,330.9,265.7,337.2,257.9,337.2z M257.9,316c-3.9,0-7.1,3.2-7.1,7.1s3.2,7.1,7.1,7.1c3.9,0,7.1-3.2,7.1-7.1
	C265.1,319.2,261.9,316,257.9,316z"/>
<circle class="st7" cx="118" cy="222.6" r="10.6"/>
<path class="st6" d="M118,236.6c-7.8,0-14.1-6.3-14.1-14.1c0-7.8,6.3-14.1,14.1-14.1s14.1,6.3,14.1,14.1l0,0
	C132,230.3,125.8,236.6,118,236.6z M118,215.4c-3.9,0-7.1,3.2-7.1,7.1c0,3.9,3.2,7.1,7.1,7.1c3.9,0,7.1-3.2,7.1-7.1l0,0
	C125.1,218.6,121.9,215.4,118,215.4L118,215.4z"/>
<circle class="st7" cx="276.8" cy="96.6" r="10.6"/>
<path class="st6" d="M276.8,110.7c-7.8,0-14.1-6.3-14.1-14.1s6.3-14.1,14.1-14.1c7.8,0,14,6.3,14.1,14
	C290.8,104.4,284.6,110.7,276.8,110.7z M276.8,89.5c-3.9,0-7.1,3.2-7.1,7.1s3.2,7.1,7.1,7.1c3.9,0,7.1-3.2,7.1-7.1c0,0,0,0,0,0
	C283.9,92.7,280.7,89.5,276.8,89.5z"/>
<circle class="st7" cx="192" cy="312.6" r="10.6"/>
<path class="st6" d="M192,326.6c-7.8,0-14.1-6.3-14.1-14.1c0-7.8,6.3-14.1,14.1-14.1c7.8,0,14,6.3,14.1,14
	C206.1,320.3,199.8,326.6,192,326.6z M192,305.4c-3.9,0-7.1,3.2-7.1,7.1c0,3.9,3.2,7.1,7.1,7.1s7.1-3.2,7.1-7.1l0,0
	C199.1,308.6,196,305.4,192,305.4z"/>
<circle class="st7" cx="125.6" cy="160.9" r="10.6"/>
<path class="st6" d="M125.6,175c-7.8,0-14-6.3-14-14.1c0-7.8,6.3-14,14.1-14c7.8,0,14,6.3,14,14C139.7,168.7,133.4,175,125.6,175z
	 M125.6,153.8c-3.9,0-7.1,3.2-7.1,7.1c0,3.9,3.2,7.1,7.1,7.1c3.9,0,7.1-3.2,7.1-7.1C132.7,157,129.5,153.8,125.6,153.8z"/>
<circle class="st7" cx="340.1" cy="160.9" r="10.6"/>
<path class="st6" d="M340.1,175c-7.8,0-14.1-6.3-14.1-14.1c0-7.8,6.3-14.1,14.1-14.1c7.8,0,14,6.3,14.1,14
	C354.1,168.7,347.8,175,340.1,175z M340.1,153.8c-3.9,0-7.1,3.2-7.1,7.1c0,3.9,3.2,7.1,7.1,7.1c3.9,0,7.1-3.2,7.1-7.1v0
	C347.2,157,344,153.8,340.1,153.8z"/>
<path class="st6" d="M303.7,494.7H92.2c-1.9,0-3.5-1.5-3.5-3.4c0-0.2,0-0.3,0-0.5c2.7-20.7,5-36.8,6.9-50.7
	c2.6-18.4,4.7-32.9,6.2-48.4c3.3-32.6-3.9-65.3-20.7-93.5c-10.7-17-19.4-35.2-26.2-54.1c-7.4-16.8-12-73.2,11.4-126.3
	c18.5-43,54.6-76,99.2-90.4C208.2,14.1,257.2,14,293.5,27s64.9,36.4,89.8,74c13.3,23.5,19.1,50.5,16.6,77.4
	c23.5,16,65.4,66.6,69.8,94.2c1.2,7-2.3,13.9-8.6,17.1c-12.1,3-24.6,4.5-37.1,4.4c-3.3,0.2-6.8,0.4-9.5,0.6c1.5,3.1,3.2,6.4,4.8,9.7
	c2.4,4.7,4.7,9.4,6.8,13.7c4,5.3,2.9,12.7-2.3,16.7c-0.5,0.4-1.1,0.7-1.6,1l-1,0.8c-2,1.5-2.7,2.8-2.6,3.5c0.2,0.8,1.6,1.8,2.1,2.2
	c2.4,1.5,4.4,3.6,5.9,6c1.7,3.7,0.5,8.2-2.8,10.5l-1.8,1.7c-8.7,8.6-8.7,8.6-5.4,16.7c0.4,0.9,0.8,1.8,1.3,2.6
	c4.2,7.6,4.1,16.8-0.2,24.3c-4,7.4-11.6,12.1-20,12.5c-9.5,0.4-19.1,0.2-28.4-0.1c-9.1-0.3-18.6-0.5-27.6-0.1
	c-6.5-0.4-13,1.2-18.5,4.5c-4.6,4.8-7.5,10.9-8.4,17.5c-4.4,17.4-7,35.1-7.8,53C306.9,493.3,305.5,494.7,303.7,494.7z M96.2,487.8
	h204.4c0.9-17.2,3.5-34.3,7.8-51c1.2-8,5-15.5,10.8-21.2c6.7-4.4,14.6-6.5,22.6-6.1c9.2-0.4,18.8-0.2,28.1,0.1
	c9.1,0.3,18.6,0.6,27.6,0.1c6.1-0.2,11.6-3.7,14.5-9c3.1-5.5,3.1-12.1,0.1-17.7c-0.6-1.1-1.2-2.2-1.7-3.3c-4.9-12-2.8-14.7,6.9-24.3
	l1.7-1.7c0.9-0.8,1.7-1.9,1.5-2.4c-1-1.4-2.3-2.6-3.7-3.6c-2.4-1.4-4.1-3.7-4.8-6.4c-0.5-4.2,1.5-8.2,5.1-10.3l1.1-0.8
	c1.5-1.2,3-2.2,3.4-3.5c0.1-2-0.4-4.1-1.5-5.8c-2-4.2-4.4-8.8-6.7-13.5c-2.4-4.8-4.8-9.7-6.9-14c-0.5-1.1-0.5-2.3,0.2-3.4
	c1.2-2,1.8-2,17.2-2.9c11.6-0.2,23.1-1.4,34.4-3.7c3.6-1.9,5.5-5.9,4.8-9.8c-4.2-26.2-47-77.1-68.5-90.6c-1.1-0.7-1.8-2-1.6-3.4
	c2.7-25.9-2.6-52.1-15.2-74.9c-24-36.3-51.4-58.9-86.3-71.3C256.2,21,208.9,21.2,167.8,34c-42.8,13.6-77.5,45.2-95,86.6
	c-22.6,51.1-18.4,104.9-11.3,121.1c6.6,18.5,15.3,36.3,25.7,53c17.5,29.4,25.1,63.6,21.6,97.7c-1.6,15.7-3.7,30.3-6.3,48.7
	C100.8,454,98.6,469,96.2,487.8L96.2,487.8z"/>
<path class="st6" d="M291.8,279.6H177c-10.4,0-18.9-8.5-18.9-18.9V145.9c0-10.4,8.5-18.9,18.9-18.9h114.8c10.4,0,18.9,8.5,18.9,18.9
	v114.8C310.6,271.1,302.2,279.6,291.8,279.6L291.8,279.6z M177,134c-6.6,0-12,5.4-12,12v114.8c0,6.6,5.4,12,12,12h114.8
	c6.6,0,12-5.4,12-12V145.9c0-6.6-5.4-12-12-12L177,134z"/>
<path class="st6" d="M282.3,254.6h-95.7c-1.9,0-3.5-1.5-3.5-3.5v-95.7c0-1.9,1.5-3.5,3.5-3.5h95.7c1.9,0,3.5,1.5,3.5,3.5v95.7
	C285.7,253.1,284.2,254.6,282.3,254.6z M190,247.7h88.8v-88.8H190V247.7z"/>
<path class="st8" d="M244.7,234.5c0,2-1.6,3.6-3.6,3.6h-1.9c-2,0-3.6-1.6-3.6-3.6c0-2,1.6-3.6,3.6-3.6h1.9
	C243.1,230.8,244.7,232.5,244.7,234.5L244.7,234.5z"/>
<path class="st8" d="M230.2,234.4c0,2-1.6,3.6-3.5,3.6c0,0-0.1,0-0.1,0h-22.1c-2.7,0-5-2.2-5-5v-15c0-2,1.6-3.6,3.6-3.6
	c2,0,3.6,1.6,3.6,3.6v12.8h19.8C228.6,230.8,230.2,232.4,230.2,234.4C230.2,234.4,230.2,234.4,230.2,234.4L230.2,234.4z"/>
</svg>
