<?xml version="1.0" encoding="utf-8"?>
<!-- Generator: Adobe Illustrator 24.1.1, SVG Export Plug-In . SVG Version: 6.00 Build 0)  -->
<svg version="1.1" xmlns="http://www.w3.org/2000/svg" xmlns:xlink="http://www.w3.org/1999/xlink" x="0px" y="0px"
	 viewBox="0 0 512 512" style="enable-background:new 0 0 512 512;" xml:space="preserve">
<style type="text/css">
	.st0{display:none;}
	.st1{display:inline;fill:#2A4997;}
	.st2{display:inline;fill:#263364;}
	.st3{display:inline;fill:#76C8DA;}
	.st4{fill:#2A4997;}
	.st5{fill:#263364;}
	.st6{fill:#76C8DA;}
</style>
<g id="Capa_1" class="st0">
	<circle class="st1" cx="256" cy="256" r="256"/>
	<path class="st2" d="M511.22,236L407.63,132.36h-47.22v43.69l24.2,24.2h-24.2v39.59L252.93,132.36h-52.6l-96,246.36L237,511.3
		c6.29,0.46,12.64,0.69,19.05,0.7c141.39,0,256-114.61,256-256C512.02,249.25,511.74,242.59,511.22,236z"/>
	<path class="st3" d="M351.57,379.68h-54.11l-21.51-56h-98.48l-20.33,56h-52.77l96-246.36h52.59L351.57,379.68z M260,282.21
		l-34-91.42l-33.28,91.42H260z"/>
	<path class="st3" d="M360.41,177v-43.68h47.22V177H360.41z M360.41,379.67V201.21h47.22v178.47L360.41,379.67z"/>
</g>
<g id="Capa_2">
	<path class="st4" d="M256.77,511.18c-141.38,0-256-114.62-256-256s114.62-256,256-256s256,114.62,256,256
		S398.16,511.18,256.77,511.18"/>
	<path class="st5" d="M240.22,233.6l-82.38-101.84l-47.22-0.17v43l20.8,24.82h-20.8l0,178.8
		c29.41,20.41,147.08,115.23,177.32,131.07"/>
	<path class="st5" d="M305.43,506.37c47.49-9.27,96.74-34.6,131.84-69.64c12.8-12.78,20.41-21.52,27.03-32.2
		c8.31-11.48,12.42-18.99,14.1-21.73c5.13-8.38,9.23-17.49,12.1-23.2L317.46,131.46h-52.59l-96,247.02l119.07,130.94"/>
	<path class="st6" d="M416.07,378.36h-54.11l-21.51-56h-98.48l-20.33,56h-52.77l96-246.36h52.59L416.07,378.36z M324.49,280.89
		l-34-91.42l-33.28,91.42H324.49z"/>
	<path class="st6" d="M110.63,175.68V132h47.22v43.68H110.63z M110.63,378.35V199.89h47.22v178.47L110.63,378.35z"/>
	<path class="st5" d="M443.91,444.38"/>
</g>
<g id="Capa_3" class="st0">
	<path class="st2" d="M240.94,253.69c0.02-6.69-0.23-13.25-0.71-19.68L151.2,132h-40.58v43l20.8,23.82h-20.8L211.56,362.3"/>
</g>
<g id="Capa_4" class="st0">
	<path class="st2" d="M431.19,183.64c0.02-6.69-0.23-13.25-0.71-19.68L341.45,61.95h-40.58v43l20.8,23.82h-20.8l100.94,163.48"/>
</g>
</svg>
